<svg xmlns="http://www.w3.org/2000/svg" viewBox="0 0 100 100" role="img" aria-label="Paul M. H. Buvarp">
  <rect width="100" height="100" rx="18" fill="#2E4B3C"/>
  <g transform="translate(24.25 69.63) scale(0.03268 -0.03268)" fill="#EDEDE7">
    <path d="M88 610Q88 829 148.0 1003.5Q208 1178 306.0 1293.0Q404 1408 516 1448Q629 1488 651 1420Q658 1400 645.5 1376.0Q633 1352 609 1323Q555 1257 511.0 1148.5Q467 1040 441.0 902.5Q415 765 415 610Q415 458 438.5 321.5Q462 185 506.0 76.0Q550 -33 609 -103Q634 -132 646.0 -155.5Q658 -179 651 -200Q630 -267 516 -227Q404 -186 306.0 -71.0Q208 44 148.0 218.0Q88 392 88 610Z"/>
    <g transform="translate(894 0)"><path d="M594.0 591.0Q594.0 372.0 534.0 197.5Q474.0 23.0 376.0 -92.0Q278.0 -207.0 166.0 -247.0Q53.0 -287.0 31.0 -219.0Q24.0 -199.0 36.5 -175.0Q49.0 -151.0 73.0 -122.0Q127.0 -56.0 171.0 52.5Q215.0 161.0 241.0 298.5Q267.0 436.0 267.0 591.0Q267.0 743.0 243.5 879.5Q220.0 1016.0 176.0 1125.0Q132.0 1234.0 73.0 1304.0Q48.0 1333.0 36.0 1356.5Q24.0 1380.0 31.0 1401.0Q52.0 1468.0 166.0 1428.0Q278.0 1387.0 376.0 1272.0Q474.0 1157.0 534.0 983.0Q594.0 809.0 594.0 591.0Z"/></g>
  </g>
</svg>